# Blender 4.1.1
# www.blender.org
mtllib player.mtl
o model
v -0.550116 2.479430 -0.371215
v -0.550116 2.259769 0.000656
v -0.550116 2.554533 -0.326852
v -0.550116 2.334873 0.045019
v -0.737701 2.479430 -0.371215
v -0.737701 2.259769 0.000656
v -0.737701 2.554533 -0.326852
v -0.737701 2.334873 0.045019
v -0.550116 2.768334 -0.347783
v -0.550116 3.200236 -0.347783
v -0.550116 2.768334 -0.435010
v -0.550116 3.200236 -0.435010
v -0.737701 2.768334 -0.347783
v -0.737701 3.200236 -0.347783
v -0.737701 2.768334 -0.435010
v -0.737701 3.200236 -0.435010
v -0.550116 2.768334 0.396651
v -0.550116 3.200236 0.396651
v -0.550116 2.768334 0.309424
v -0.550116 3.200236 0.309424
v -0.737701 2.768334 0.396651
v -0.737701 3.200236 0.396651
v -0.737701 2.768334 0.309424
v -0.737701 3.200236 0.309424
v -0.550116 2.249030 0.002097
v -0.550116 2.493343 0.358258
v -0.550116 2.320960 -0.047244
v -0.550116 2.565273 0.308916
v -0.737701 2.249030 0.002097
v -0.737701 2.493343 0.358258
v -0.737701 2.320960 -0.047244
v -0.737701 2.565273 0.308916
v -0.500000 -0.264996 0.316566
v -0.500000 1.735004 0.900000
v -0.500000 -0.264996 -0.316566
v -0.500000 1.735004 -0.900000
v 0.500000 -0.264996 0.316566
v 0.500000 1.735004 0.900000
v 0.500000 -0.264996 -0.316566
v 0.500000 1.735004 -0.900000
v 0.700000 3.639165 -0.900000
v 0.700000 2.039165 -0.900000
v 0.700000 3.639165 0.900000
v 0.700000 2.039165 0.900000
v -0.700000 3.639165 -0.900000
v -0.700000 2.039165 -0.900000
v -0.700000 3.639165 0.900000
v -0.700000 2.039165 0.900000
v -0.363799 -0.507600 2.332886
v -0.334329 0.118916 2.800941
v -0.250034 1.080230 1.059398
v -0.234574 1.425445 1.299987
v 0.411975 -0.505878 2.297740
v 0.441445 0.120637 2.765795
v 0.156928 1.081179 1.041332
v 0.172388 1.426394 1.281922
v 0.363799 -0.498161 -2.358917
v 0.334329 0.128355 -2.826972
v 0.250034 1.089669 -1.085430
v 0.234574 1.434884 -1.326019
v -0.411975 -0.496439 -2.323771
v -0.441445 0.130077 -2.791826
v -0.156929 1.090618 -1.067364
v -0.172388 1.435833 -1.307953
vn 1.0000 -0.0000 -0.0000
vn -0.0000 0.8610 0.5086
vn -1.0000 -0.0000 -0.0000
vn -0.0000 -0.8610 -0.5086
vn -0.0000 0.5086 -0.8610
vn -0.0000 -0.5086 0.8610
vn -0.0000 -0.0000 -1.0000
vn -0.0000 -0.0000 1.0000
vn -0.0000 -1.0000 -0.0000
vn -0.0000 1.0000 -0.0000
vn -0.0000 0.8246 -0.5657
vn -0.0000 -0.8246 0.5657
vn -0.0000 -0.5657 -0.8246
vn -0.0000 0.5657 0.8246
vn -0.0000 0.2800 0.9600
vn -0.0000 0.2800 -0.9600
vn 0.9981 -0.0588 0.0159
vn 0.0377 -0.5725 0.8190
vn -0.9896 -0.0533 0.1336
vn -0.0376 0.5992 -0.7997
vn 0.0332 0.6239 0.7808
vn -0.0281 -0.7530 -0.6575
vn -0.9981 -0.0588 -0.0159
vn -0.0377 -0.5725 -0.8190
vn 0.9896 -0.0533 -0.1336
vn 0.0376 0.5992 0.7997
vn -0.0340 0.6238 -0.7808
vn 0.0274 -0.7529 0.6576
vn 0.9983 -0.0566 0.0171
vn -0.9895 -0.0500 0.1354
vn 0.0340 0.6237 0.7809
vn -0.0274 -0.7531 -0.6574
vn -0.9983 -0.0566 -0.0171
vn 0.9895 -0.0500 -0.1354
vn -0.0332 0.6236 -0.7810
vn 0.0281 -0.7530 0.6574
vt 0.625000 0.000000
vt 0.375000 0.250000
vt 0.375000 0.000000
vt 0.625000 0.250000
vt 0.375000 0.500000
vt 0.625000 0.500000
vt 0.375000 0.750000
vt 0.625000 0.750000
vt 0.375000 1.000000
vt 0.125000 0.750000
vt 0.125000 0.500000
vt 0.875000 0.500000
vt 0.000000 0.000000
vt 0.875000 0.750000
vt 0.625000 1.000000
s 0
usemtl マテリアル.002
f 2/1/1 1/3/1 3/2/1
f 4/4/2 3/2/2 7/5/2
f 8/6/3 7/5/3 5/7/3
f 6/8/4 5/7/4 1/9/4
f 7/5/5 3/11/5 1/10/5
f 4/12/6 8/6/6 6/8/6
f 2/1/1 3/2/1 4/4/1
f 4/4/2 7/5/2 8/6/2
f 8/6/3 5/7/3 6/8/3
f 6/8/4 1/9/4 2/15/4
f 7/5/5 1/10/5 5/7/5
f 4/12/6 6/8/6 2/14/6
usemtl マテリアル
f 9/3/1 11/2/1 12/4/1
f 12/4/7 11/2/7 15/5/7
f 16/6/3 15/5/3 13/7/3
f 14/8/8 13/7/8 9/9/8
f 15/5/9 11/11/9 9/10/9
f 12/12/10 16/6/10 14/8/10
f 9/3/1 12/4/1 10/1/1
f 12/4/7 15/5/7 16/6/7
f 16/6/3 13/7/3 14/8/3
f 14/8/8 9/9/8 10/15/8
f 15/5/9 9/10/9 13/7/9
f 12/12/10 14/8/10 10/14/10
usemtl マテリアル.001
f 17/3/1 19/2/1 20/4/1
f 20/4/7 19/2/7 23/5/7
f 24/6/3 23/5/3 21/7/3
f 22/8/8 21/7/8 17/9/8
f 23/5/9 19/11/9 17/10/9
f 20/12/10 24/6/10 22/8/10
f 17/3/1 20/4/1 18/1/1
f 20/4/7 23/5/7 24/6/7
f 24/6/3 21/7/3 22/8/3
f 22/8/8 17/9/8 18/15/8
f 23/5/9 17/10/9 21/7/9
f 20/12/10 22/8/10 18/14/10
usemtl マテリアル.003
f 26/1/1 25/3/1 27/2/1
f 28/4/11 27/2/11 31/5/11
f 31/5/3 29/7/3 30/8/3
f 30/8/12 29/7/12 25/9/12
f 31/5/13 27/11/13 25/10/13
f 28/12/14 32/6/14 30/8/14
f 26/1/1 27/2/1 28/4/1
f 28/4/11 31/5/11 32/6/11
f 31/5/3 30/8/3 32/6/3
f 30/8/12 25/9/12 26/15/12
f 31/5/13 25/10/13 29/7/13
f 28/12/14 30/8/14 26/14/14
usemtl Material
f 33/3/1 35/2/1 36/4/1
f 36/4/15 35/2/15 39/5/15
f 40/6/3 39/5/3 37/7/3
f 38/8/16 37/7/16 33/9/16
f 39/5/10 35/11/10 33/10/10
f 36/12/9 40/6/9 38/8/9
f 45/13/9 41/13/9 43/13/9
f 43/13/7 44/13/7 48/13/7
f 48/13/1 46/13/1 45/13/1
f 42/13/10 46/13/10 48/13/10
f 41/13/3 42/13/3 44/13/3
f 45/13/8 46/13/8 42/13/8
f 33/3/1 36/4/1 34/1/1
f 36/4/15 39/5/15 40/6/15
f 40/6/3 37/7/3 38/8/3
f 38/8/16 33/9/16 34/15/16
f 39/5/10 33/10/10 37/7/10
f 36/12/9 38/8/9 34/14/9
f 45/13/9 43/13/9 47/13/9
f 43/13/7 48/13/7 47/13/7
f 48/13/1 45/13/1 47/13/1
f 42/13/10 48/13/10 44/13/10
f 41/13/3 44/13/3 43/13/3
f 45/13/8 42/13/8 41/13/8
usemtl マテリアル.005
f 50/1/17 49/3/17 51/2/17
f 51/2/18 55/5/18 56/6/18
f 55/5/19 53/7/19 54/8/19
f 54/8/20 53/7/20 49/9/20
f 55/5/21 51/11/21 49/10/21
f 56/6/22 54/8/22 50/14/22
f 50/1/29 51/2/29 52/4/29
f 51/2/18 56/6/18 52/4/18
f 55/5/30 54/8/30 56/6/30
f 54/8/20 49/9/20 50/15/20
f 55/5/31 49/10/31 53/7/31
f 56/6/32 50/14/32 52/12/32
usemtl マテリアル.004
f 58/1/23 57/3/23 59/2/23
f 60/4/24 59/2/24 63/5/24
f 63/5/25 61/7/25 62/8/25
f 61/7/26 57/9/26 58/15/26
f 59/11/27 57/10/27 61/7/27
f 60/12/28 64/6/28 62/8/28
f 58/1/33 59/2/33 60/4/33
f 60/4/24 63/5/24 64/6/24
f 63/5/34 62/8/34 64/6/34
f 61/7/26 58/15/26 62/8/26
f 59/11/35 61/7/35 63/5/35
f 60/12/36 62/8/36 58/14/36
