# Blender 4.1.1
# www.blender.org
mtllib player.mtl
o player
v -2.817885 0.586033 0.163730
v -2.486161 0.238109 0.163730
v -1.622449 1.948237 0.251702
v -1.231648 1.596286 0.251702
v -2.817885 0.586033 -0.180329
v -2.486161 0.238109 -0.180329
v -1.622449 1.948237 -0.268301
v -1.231648 1.596286 -0.268301
v 0.781227 2.602882 0.689666
v -0.767197 2.602882 0.689666
v 0.930797 4.038998 0.689667
v 0.781227 2.602882 -0.683811
v -0.767197 2.602882 -0.683811
v 0.930797 4.038998 -0.683811
v -0.916766 4.038998 -0.683811
v -0.916766 4.038998 0.689667
v 0.504641 0.239599 0.515668
v -0.490611 0.239599 0.515668
v 1.007015 2.239599 0.515668
v 0.504641 0.239599 -0.488326
v -0.490611 0.239599 -0.488326
v 1.007015 2.239599 -0.488326
v -0.992985 2.239599 -0.488326
v -0.992985 2.239599 0.515668
v 2.571681 0.331392 0.163730
v 1.148779 1.453898 0.251702
v 2.901766 0.680870 0.163730
v 2.571681 0.331392 -0.180329
v 1.148779 1.453898 -0.268301
v 2.901766 0.680870 -0.180329
v 1.479795 1.862583 -0.268301
v 1.479795 1.862583 0.251702
vn -0.0324 -0.0360 0.9988
vn 0.6692 0.7431 -0.0000
vn -0.0324 -0.0360 -0.9988
vn -0.7238 -0.6901 -0.0000
vn -0.7516 0.6596 -0.0000
vn 0.7346 -0.6785 -0.0000
vn -0.0000 -1.0000 -0.0000
vn -0.0000 -0.0000 1.0000
vn 0.9946 -0.1036 -0.0000
vn -0.0000 -0.0000 -1.0000
vn -0.0000 1.0000 -0.0000
vn -0.9946 -0.1036 -0.0000
vn 0.9699 -0.2436 -0.0000
vn -0.9699 -0.2436 -0.0000
vn -0.6194 -0.7851 -0.0000
vn 0.0377 -0.0305 0.9988
vn 0.7270 -0.6866 -0.0000
vn 0.0377 -0.0305 -0.9988
vn 0.6391 0.7691 -0.0000
vn -0.7771 0.6294 -0.0000
vn -0.0345 -0.0329 0.9989
vn -0.0345 -0.0329 -0.9989
vn 0.0346 -0.0327 0.9989
vn 0.0346 -0.0327 -0.9989
vt 0.101140 0.433128
vt 0.135870 0.647773
vt 0.075495 0.641114
vt 0.068912 0.700809
vt 0.129286 0.707467
vt 0.048616 0.909385
vt 0.103179 0.919644
vt 0.041273 0.948438
vt 0.008926 0.907459
vt 0.008926 0.697897
vt 0.188477 0.717626
vt 0.334314 0.362811
vt 0.492940 0.183979
vt 0.492940 0.362811
vt 0.228854 0.746659
vt 0.350745 0.520584
vt 0.387596 0.695578
vt 0.168453 0.166705
vt 0.350745 0.026206
vt 0.334314 0.183979
vt 0.009826 0.380085
vt 0.168453 0.380085
vt 0.184884 0.537859
vt 0.553850 0.454503
vt 0.391483 0.471656
vt 0.463380 0.381973
vt 0.860833 0.221197
vt 0.602154 0.349089
vt 0.623137 0.236076
vt 0.625881 0.733935
vt 0.389569 0.614260
vt 0.481953 0.544185
vt 0.770363 0.553715
vt 0.860833 0.626244
vt 0.818667 0.448301
vt 0.871752 0.724369
vt 0.811766 0.931019
vt 0.811766 0.721457
vt 0.903980 0.456688
vt 0.938710 0.671333
vt 0.878335 0.664674
vt 0.906019 0.943204
vt 0.844113 0.971997
vt 0.851456 0.932945
vt 0.932126 0.731027
vt 0.945183 0.949925
vt 0.156628 0.435006
vt 0.095837 0.958696
vt 0.142343 0.926366
vt 0.184884 0.008932
vt 0.009826 0.166705
vt 0.533497 0.804010
vt 0.716352 0.806465
vt 0.959468 0.458566
vt 0.898677 0.982256
vt 0.991317 0.741186
s 0
usemtl マテリアル.008
f 1/1/1 4/2/1 3/3/1
f 4/2/2 7/4/2 3/3/2
f 8/5/3 5/6/3 7/4/3
f 6/7/4 1/8/4 5/6/4
f 7/4/5 1/9/5 3/10/5
f 4/11/6 6/7/6 8/5/6
f 13/12/7 9/13/7 10/14/7
f 11/15/8 10/16/8 9/17/8
f 14/18/9 9/19/9 12/20/9
f 13/12/10 14/18/10 12/20/10
f 16/21/11 14/18/11 15/22/11
f 16/23/12 13/12/12 10/16/12
f 21/24/7 17/25/7 18/26/7
f 19/27/8 18/28/8 17/29/8
f 22/30/13 17/31/13 20/32/13
f 23/33/10 20/32/10 21/24/10
f 24/34/11 22/30/11 23/33/11
f 24/35/14 21/24/14 18/28/14
f 29/36/15 25/37/15 26/38/15
f 25/39/16 32/40/16 26/41/16
f 30/42/17 25/43/17 28/44/17
f 31/45/18 28/44/18 29/36/18
f 31/45/19 27/46/19 30/42/19
f 32/40/20 29/36/20 26/41/20
f 1/1/21 2/47/21 4/2/21
f 4/2/2 8/5/2 7/4/2
f 8/5/22 6/7/22 5/6/22
f 6/7/4 2/48/4 1/8/4
f 7/4/5 5/6/5 1/9/5
f 4/11/6 2/49/6 6/7/6
f 13/12/7 12/20/7 9/13/7
f 11/15/8 16/23/8 10/16/8
f 14/18/9 11/50/9 9/19/9
f 13/12/10 15/22/10 14/18/10
f 16/21/11 11/51/11 14/18/11
f 16/23/12 15/22/12 13/12/12
f 21/24/7 20/32/7 17/25/7
f 19/27/8 24/35/8 18/28/8
f 22/30/13 19/52/13 17/31/13
f 23/33/10 22/30/10 20/32/10
f 24/34/11 19/53/11 22/30/11
f 24/35/14 23/33/14 21/24/14
f 29/36/15 28/44/15 25/37/15
f 25/39/23 27/54/23 32/40/23
f 30/42/17 27/55/17 25/43/17
f 31/45/24 30/42/24 28/44/24
f 31/45/19 32/56/19 27/46/19
f 32/40/20 31/45/20 29/36/20
