# Blender 4.1.1
# www.blender.org
mtllib player_Body.mtl
o player.002
v 0.504641 0.239599 0.515668
v -0.490611 0.239599 0.515668
v 1.007015 2.239599 0.515668
v 0.504641 0.239599 -0.488326
v -0.490611 0.239599 -0.488326
v 1.007015 2.239599 -0.488326
v -0.992985 2.239599 0.515668
v -0.992985 2.239599 -0.488326
vn -0.0000 -0.0000 1.0000
vn -0.0000 -1.0000 -0.0000
vn 0.9699 -0.2436 -0.0000
vn -0.0000 -0.0000 -1.0000
vn -0.0000 1.0000 -0.0000
vn -0.9699 -0.2436 -0.0000
vt 0.860833 0.221197
vt 0.602154 0.349089
vt 0.623137 0.236076
vt 0.553850 0.454503
vt 0.391483 0.471656
vt 0.463380 0.381973
vt 0.625881 0.733935
vt 0.533497 0.804010
vt 0.389569 0.614260
vt 0.481953 0.544185
vt 0.770363 0.553715
vt 0.860833 0.626244
vt 0.716352 0.806465
vt 0.818667 0.448301
s 0
usemtl マテリアル.008
f 3/1/1 2/2/1 1/3/1
f 5/4/2 1/5/2 2/6/2
f 6/7/3 3/8/3 1/9/3
f 5/4/2 4/10/2 1/5/2
f 6/7/3 1/9/3 4/10/3
f 8/11/4 6/7/4 4/10/4
f 7/12/5 3/13/5 6/7/5
f 7/12/5 6/7/5 8/11/5
f 7/14/6 8/11/6 5/4/6
f 8/11/4 4/10/4 5/4/4
f 7/14/6 5/4/6 2/2/6
f 3/1/1 7/14/1 2/2/1
