# Blender 4.1.1
# www.blender.org
mtllib player_Head.mtl
o player.001
v 0.781227 0.341183 0.689666
v -0.767197 0.341183 0.689666
v 0.930797 1.777299 0.689667
v 0.781227 0.341183 -0.683811
v -0.767197 0.341183 -0.683811
v 0.930797 1.777299 -0.683811
v -0.916766 1.777299 -0.683811
v -0.916766 1.777299 0.689667
vn -0.0000 -0.0000 1.0000
vn -0.0000 -1.0000 -0.0000
vn 0.9946 -0.1036 -0.0000
vn -0.0000 -0.0000 -1.0000
vn -0.0000 1.0000 -0.0000
vn -0.9946 -0.1036 -0.0000
vt 0.228854 0.746659
vt 0.350745 0.520584
vt 0.387596 0.695578
vt 0.334314 0.362811
vt 0.492940 0.183979
vt 0.492940 0.362811
vt 0.168453 0.166705
vt 0.184884 0.008932
vt 0.350745 0.026206
vt 0.334314 0.183979
vt 0.168453 0.380085
vt 0.009826 0.380085
vt 0.009826 0.166705
vt 0.184884 0.537859
s 0
usemtl マテリアル.008
f 3/1/1 2/2/1 1/3/1
f 5/4/2 1/5/2 2/6/2
f 6/7/3 3/8/3 1/9/3
f 5/4/2 4/10/2 1/5/2
f 6/7/3 1/9/3 4/10/3
f 5/4/4 6/7/4 4/10/4
f 5/4/4 7/11/4 6/7/4
f 8/12/5 6/7/5 7/11/5
f 8/12/5 3/13/5 6/7/5
f 8/14/6 7/11/6 5/4/6
f 3/1/1 8/14/1 2/2/1
f 8/14/6 5/4/6 2/2/6
