# Blender 4.1.1
# www.blender.org
mtllib enemy_R_arm.mtl
o L_arm
v -0.143803 -0.133821 -0.769950
v -0.143803 0.167699 -0.769950
v -0.143803 -0.133821 0.618706
v 0.157717 -0.133821 0.618706
v -0.143803 0.167699 0.618706
v 0.157717 -0.133821 -0.769950
v 0.157717 0.167699 -0.769950
v 0.157717 0.167699 0.618706
v 0.002434 0.017241 1.247030
v 0.002434 0.017241 1.247030
v 0.002434 0.017241 1.247030
v 0.002434 0.017241 1.247030
vn -1.0000 -0.0000 -0.0000
vn -0.0000 -0.0000 -1.0000
vn -0.0000 -1.0000 -0.0000
vn 1.0000 -0.0000 -0.0000
vn -0.0000 1.0000 -0.0000
vn -0.0000 0.9725 0.2329
vn 0.9708 -0.0000 0.2399
vn -0.2336 0.2273 0.9454
vn -0.2384 -0.1144 0.9644
vn -0.2252 0.1143 -0.9676
vn -0.2208 -0.2271 -0.9485
vn -0.0000 -0.9723 0.2338
vn -0.9740 -0.0000 0.2267
vt 0.877106 0.007019
vt 0.903880 0.267290
vt 0.847367 0.273104
vt 0.853181 0.329617
vt 0.879956 0.589888
vt 0.823443 0.595702
vt 0.796668 0.335430
vt 0.820593 0.012832
vt 0.909694 0.323803
vt 0.936468 0.584074
vt 0.992981 0.578261
vt 0.966207 0.317989
vt 0.920787 0.708321
vt 0.796668 0.725276
vt 0.802313 0.668770
vt 0.920747 0.708282
vt 0.920653 0.708271
vt 0.920674 0.708258
vt 0.832057 0.620396
s 0
usemtl Material.001
f 5/1/1 2/2/1 1/3/1
f 2/2/2 6/4/2 1/3/2
f 4/5/3 3/6/3 1/7/3
f 5/1/1 1/3/1 3/8/1
f 4/5/3 1/7/3 6/4/3
f 2/2/2 7/9/2 6/4/2
f 7/9/4 4/5/4 6/4/4
f 7/9/4 8/10/4 4/5/4
f 7/9/5 5/11/5 8/10/5
f 7/9/5 2/12/5 5/11/5
f 9/13/6 8/14/6 5/15/6
f 4/5/7 8/10/7 9/13/7
f 10/16/5 9/13/5 11/17/5
f 4/5/8 9/13/5 10/16/9
f 9/13/10 5/15/11 11/17/5
f 12/18/5 11/17/10 5/15/11
f 10/16/5 11/17/5 12/18/5
f 4/5/8 10/16/5 12/18/9
f 4/5/12 12/18/12 3/19/12
f 12/18/13 5/15/13 3/19/13
